<svg xmlns="http://www.w3.org/2000/svg">
    <symbol id="icon_msg" viewBox="0 0 20 20">
        <path d="M20.000,6.000 L19.825,6.000 L13.613,10.004 L19.000,13.504 L19.000,10.000 L20.000,10.000 L20.000,14.154 L20.010,14.161 L20.000,14.174 L20.000,16.000 C20.000,17.105 19.104,18.000 18.000,18.000 L2.000,18.000 C0.895,18.000 -0.000,17.105 -0.000,16.000 L-0.000,14.174 L-0.010,14.161 L-0.000,14.154 L-0.000,4.000 C-0.000,2.895 0.895,2.000 2.000,2.000 L18.000,2.000 C19.104,2.000 20.000,2.895 20.000,4.000 L20.000,5.870 L20.008,5.882 L20.000,5.887 L20.000,6.000 ZM19.000,5.000 C19.000,3.895 18.104,3.000 17.000,3.000 L3.000,3.000 C1.895,3.000 1.000,3.895 1.000,5.000 L1.000,5.870 L1.000,5.887 L1.000,9.000 L1.000,13.504 L6.395,9.999 L7.010,10.839 L1.000,14.744 L1.000,15.000 C1.000,16.104 1.895,17.000 3.000,17.000 L17.000,17.000 C18.104,17.000 19.000,16.104 19.000,15.000 L19.000,14.744 L12.990,10.839 L13.590,10.019 L10.531,11.991 L10.500,11.940 L10.469,11.991 L4.000,7.821 L4.000,6.600 L10.500,10.791 L19.000,5.311 L19.000,5.000 Z"/>
    </symbol>
    <symbol id="icon_account" viewBox="0 0 20 20">
        <path d="M10.000,11.000 C15.185,11.000 19.447,14.947 19.949,20.000 L18.941,20.000 C18.443,15.500 14.632,12.000 10.000,12.000 C5.368,12.000 1.556,15.500 1.058,20.000 L0.054,20.000 C0.469,15.840 3.432,12.438 7.361,11.363 C5.377,10.385 4.000,8.362 4.000,6.000 C4.000,2.686 6.686,-0.000 10.000,-0.000 C13.314,-0.000 16.000,2.686 16.000,6.000 C16.000,6.705 15.856,7.371 15.632,8.000 L14.578,8.000 C14.846,7.387 15.000,6.712 15.000,6.000 C15.000,3.238 12.761,1.000 10.000,1.000 C7.238,1.000 5.000,3.238 5.000,6.000 C5.000,8.761 7.238,11.000 10.000,11.000 Z"/>    
    </symbol>
    <symbol id="icon_password" viewBox="0 0 20 20">
        <path d="M17.000,20.000 L3.000,20.000 C1.895,20.000 1.000,19.104 1.000,18.000 L1.000,10.000 C1.000,8.895 1.895,8.000 3.000,8.000 L17.000,8.000 C18.104,8.000 19.000,8.895 19.000,10.000 L19.000,18.000 C19.000,19.104 18.104,20.000 17.000,20.000 ZM18.000,10.000 C18.000,9.448 17.552,9.000 17.000,9.000 L3.000,9.000 C2.448,9.000 2.000,9.448 2.000,10.000 L2.000,18.000 C2.000,18.552 2.448,19.000 3.000,19.000 L17.000,19.000 C17.552,19.000 18.000,18.552 18.000,18.000 L18.000,10.000 ZM10.000,16.000 C8.895,16.000 8.000,15.104 8.000,14.000 C8.000,12.895 8.895,12.000 10.000,12.000 C11.104,12.000 12.000,12.895 12.000,14.000 C12.000,15.104 11.104,16.000 10.000,16.000 ZM10.000,13.000 C9.448,13.000 9.000,13.448 9.000,14.000 C9.000,14.552 9.448,15.000 10.000,15.000 C10.552,15.000 11.000,14.552 11.000,14.000 C11.000,13.448 10.552,13.000 10.000,13.000 ZM14.000,5.000 C14.000,2.791 12.209,1.000 10.000,1.000 C7.791,1.000 6.000,2.791 6.000,5.000 L6.000,6.000 L5.000,6.000 L5.000,5.000 C5.000,2.238 7.238,-0.000 10.000,-0.000 C12.761,-0.000 15.000,2.238 15.000,5.000 L15.000,6.000 L14.000,6.000 L14.000,5.000 Z"/>
    </symbol>
</svg>