<svg xmlns="http://www.w3.org/2000/svg">
    <symbol id="icon_msg" viewBox="0 0 20 20">
        <path d="M20.000,6.000 L19.825,6.000 L13.613,10.004 L19.000,13.504 L19.000,10.000 L20.000,10.000 L20.000,14.154 L20.010,14.161 L20.000,14.174 L20.000,16.000 C20.000,17.105 19.104,18.000 18.000,18.000 L2.000,18.000 C0.895,18.000 -0.000,17.105 -0.000,16.000 L-0.000,14.174 L-0.010,14.161 L-0.000,14.154 L-0.000,4.000 C-0.000,2.895 0.895,2.000 2.000,2.000 L18.000,2.000 C19.104,2.000 20.000,2.895 20.000,4.000 L20.000,5.870 L20.008,5.882 L20.000,5.887 L20.000,6.000 ZM19.000,5.000 C19.000,3.895 18.104,3.000 17.000,3.000 L3.000,3.000 C1.895,3.000 1.000,3.895 1.000,5.000 L1.000,5.870 L1.000,5.887 L1.000,9.000 L1.000,13.504 L6.395,9.999 L7.010,10.839 L1.000,14.744 L1.000,15.000 C1.000,16.104 1.895,17.000 3.000,17.000 L17.000,17.000 C18.104,17.000 19.000,16.104 19.000,15.000 L19.000,14.744 L12.990,10.839 L13.590,10.019 L10.531,11.991 L10.500,11.940 L10.469,11.991 L4.000,7.821 L4.000,6.600 L10.500,10.791 L19.000,5.311 L19.000,5.000 Z"/>
    </symbol>
    <symbol id="icon_account" viewBox="0 0 20 20">
        <path d="M10.000,11.000 C15.185,11.000 19.447,14.947 19.949,20.000 L18.941,20.000 C18.443,15.500 14.632,12.000 10.000,12.000 C5.368,12.000 1.556,15.500 1.058,20.000 L0.054,20.000 C0.469,15.840 3.432,12.438 7.361,11.363 C5.377,10.385 4.000,8.362 4.000,6.000 C4.000,2.686 6.686,-0.000 10.000,-0.000 C13.314,-0.000 16.000,2.686 16.000,6.000 C16.000,6.705 15.856,7.371 15.632,8.000 L14.578,8.000 C14.846,7.387 15.000,6.712 15.000,6.000 C15.000,3.238 12.761,1.000 10.000,1.000 C7.238,1.000 5.000,3.238 5.000,6.000 C5.000,8.761 7.238,11.000 10.000,11.000 Z"/>    
    </symbol>
    <symbol id="icon_password" viewBox="0 0 20 20">
        <path d="M17.000,20.000 L3.000,20.000 C1.895,20.000 1.000,19.104 1.000,18.000 L1.000,10.000 C1.000,8.895 1.895,8.000 3.000,8.000 L17.000,8.000 C18.104,8.000 19.000,8.895 19.000,10.000 L19.000,18.000 C19.000,19.104 18.104,20.000 17.000,20.000 ZM18.000,10.000 C18.000,9.448 17.552,9.000 17.000,9.000 L3.000,9.000 C2.448,9.000 2.000,9.448 2.000,10.000 L2.000,18.000 C2.000,18.552 2.448,19.000 3.000,19.000 L17.000,19.000 C17.552,19.000 18.000,18.552 18.000,18.000 L18.000,10.000 ZM10.000,16.000 C8.895,16.000 8.000,15.104 8.000,14.000 C8.000,12.895 8.895,12.000 10.000,12.000 C11.104,12.000 12.000,12.895 12.000,14.000 C12.000,15.104 11.104,16.000 10.000,16.000 ZM10.000,13.000 C9.448,13.000 9.000,13.448 9.000,14.000 C9.000,14.552 9.448,15.000 10.000,15.000 C10.552,15.000 11.000,14.552 11.000,14.000 C11.000,13.448 10.552,13.000 10.000,13.000 ZM14.000,5.000 C14.000,2.791 12.209,1.000 10.000,1.000 C7.791,1.000 6.000,2.791 6.000,5.000 L6.000,6.000 L5.000,6.000 L5.000,5.000 C5.000,2.238 7.238,-0.000 10.000,-0.000 C12.761,-0.000 15.000,2.238 15.000,5.000 L15.000,6.000 L14.000,6.000 L14.000,5.000 Z"/>
    </symbol>
    <symbol id="icon_tip" viewBox="0 0 20 20">
        <path d="M9.999,19.999 C4.476,19.999 -0.001,15.522 -0.001,9.999 C-0.001,4.476 4.476,-0.001 9.999,-0.001 C15.522,-0.001 19.999,4.476 19.999,9.999 C19.999,15.522 15.522,19.999 9.999,19.999 ZM9.999,1.249 C5.167,1.249 1.249,5.167 1.249,9.999 C1.249,14.832 5.167,18.749 9.999,18.749 C14.832,18.749 18.749,14.832 18.749,9.999 C18.749,5.167 14.832,1.249 9.999,1.249 ZM12.274,10.971 C11.744,11.418 11.398,11.748 11.235,11.961 C11.073,12.173 10.952,12.417 10.874,12.693 C10.796,12.968 10.751,13.416 10.739,14.036 L9.177,14.036 C9.171,13.829 9.168,13.674 9.168,13.571 C9.168,12.962 9.258,12.437 9.439,11.995 C9.571,11.662 9.784,11.326 10.080,10.988 C10.296,10.741 10.686,10.381 11.249,9.907 C11.812,9.434 12.177,9.056 12.346,8.775 C12.514,8.494 12.599,8.187 12.599,7.854 C12.599,7.251 12.352,6.722 11.858,6.265 C11.365,5.809 10.760,5.581 10.043,5.581 C9.351,5.581 8.774,5.787 8.310,6.201 C7.846,6.614 7.543,7.260 7.398,8.138 L5.728,7.949 C5.878,6.772 6.325,5.871 7.068,5.245 C7.812,4.619 8.795,4.307 10.016,4.307 C11.310,4.307 12.343,4.642 13.113,5.314 C13.884,5.986 14.269,6.798 14.269,7.751 C14.269,8.302 14.134,8.810 13.863,9.274 C13.592,9.739 13.062,10.305 12.274,10.971 ZM10.928,17.144 L9.077,17.144 L9.077,15.379 L10.928,15.379 L10.928,17.144 Z" class="cls-1"/>
    </symbol>
    <symbol id="icon_datasource" viewBox="0 0 18 22">
        <path d="M-0.000,22.000 L-0.000,4.125 L3.000,4.125 L3.000,5.500 L1.500,5.500 L1.500,20.625 L16.500,20.625 L16.500,5.500 L15.000,5.500 L15.000,4.125 L18.000,4.125 L18.000,22.000 L-0.000,22.000 ZM4.500,4.125 L6.000,4.125 L6.000,2.750 C6.000,1.231 7.343,-0.000 9.000,-0.000 C10.657,-0.000 12.000,1.231 12.000,2.750 L12.000,4.125 L13.500,4.125 L13.500,5.500 L4.500,5.500 L4.500,4.125 ZM7.500,4.125 L10.500,4.125 L10.500,2.750 C10.500,1.990 9.828,1.375 9.000,1.375 C8.171,1.375 7.500,1.990 7.500,2.750 L7.500,4.125 ZM3.000,8.250 L15.000,8.250 L15.000,9.625 L3.000,9.625 L3.000,8.250 ZM15.000,17.875 L3.000,17.875 L3.000,16.500 L15.000,16.500 L15.000,17.875 ZM3.000,12.375 L15.000,12.375 L15.000,13.750 L3.000,13.750 L3.000,12.375 Z" class="cls-1"/>
    </symbol>
    <symbol id="icon_setting" viewBox="0 0 20 20">
        <path d="M20.000,9.979 C20.000,10.568 19.941,11.141 19.846,11.703 C19.761,12.209 19.644,12.703 19.489,13.181 C19.388,13.089 19.307,12.980 19.186,12.909 C18.229,12.346 17.006,12.680 16.454,13.655 C15.901,14.630 16.229,15.876 17.186,16.439 C17.319,16.518 17.465,16.539 17.607,16.584 C17.290,16.962 16.944,17.315 16.577,17.642 C16.558,17.632 16.538,17.627 16.519,17.616 C16.529,17.622 16.540,17.624 16.550,17.630 C15.607,18.467 14.528,19.148 13.324,19.581 C12.864,19.746 12.391,19.884 11.903,19.980 C11.943,19.819 12.000,19.664 12.000,19.490 C12.000,18.365 11.104,17.452 10.000,17.452 C8.895,17.452 8.000,18.365 8.000,19.490 C8.000,19.664 8.057,19.819 8.097,19.980 C7.608,19.884 7.136,19.746 6.676,19.581 C5.472,19.148 4.393,18.467 3.450,17.630 C3.460,17.624 3.471,17.622 3.481,17.616 C3.462,17.627 3.442,17.632 3.423,17.642 C3.055,17.315 2.710,16.962 2.393,16.584 C2.534,16.539 2.680,16.518 2.814,16.439 C3.771,15.876 4.098,14.630 3.546,13.655 C2.994,12.680 1.771,12.346 0.814,12.909 C0.693,12.980 0.612,13.089 0.511,13.181 C0.356,12.703 0.239,12.209 0.154,11.703 C0.059,11.141 -0.000,10.568 -0.000,9.979 C-0.000,9.302 0.068,8.643 0.191,8.003 L0.191,8.003 C0.285,7.519 0.419,7.050 0.577,6.593 C0.659,6.662 0.719,6.750 0.814,6.807 C1.771,7.369 2.994,7.035 3.546,6.060 C4.098,5.086 3.771,3.839 2.814,3.276 C2.733,3.228 2.643,3.223 2.558,3.188 C2.876,2.827 3.213,2.483 3.578,2.171 L3.578,2.171 C4.488,1.393 5.540,0.789 6.682,0.378 C6.682,0.377 6.681,0.376 6.681,0.374 C7.125,0.215 7.578,0.080 8.047,-0.015 C8.038,0.067 8.000,0.140 8.000,0.225 C8.000,1.351 8.895,2.263 10.000,2.263 C11.104,2.263 12.000,1.351 12.000,0.225 C12.000,0.140 11.962,0.067 11.952,-0.015 C12.422,0.080 12.875,0.215 13.318,0.374 C14.458,0.784 15.487,1.416 16.396,2.190 C16.405,2.184 16.413,2.177 16.422,2.171 C16.787,2.483 17.124,2.827 17.442,3.188 C17.357,3.223 17.267,3.228 17.186,3.276 C16.229,3.839 15.901,5.086 16.454,6.060 C17.006,7.035 18.229,7.369 19.186,6.807 C19.281,6.750 19.340,6.662 19.423,6.593 C19.581,7.050 19.715,7.519 19.808,8.003 C19.803,8.006 19.797,8.008 19.792,8.011 C19.915,8.650 20.000,9.303 20.000,9.979 ZM18.518,8.415 C17.255,8.544 15.975,7.933 15.299,6.740 C14.640,5.578 14.743,4.190 15.433,3.147 C14.701,2.547 13.880,2.054 12.981,1.716 C12.438,2.841 11.313,3.622 10.000,3.622 C8.684,3.622 7.557,2.838 7.015,1.710 C6.123,2.055 5.298,2.544 4.568,3.148 C5.256,4.191 5.359,5.578 4.701,6.740 C4.026,7.931 2.749,8.541 1.488,8.415 C1.398,8.925 1.333,9.443 1.333,9.979 C1.333,10.429 1.371,10.870 1.435,11.301 L1.435,11.301 C2.714,11.153 4.016,11.767 4.701,12.975 C5.393,14.197 5.255,15.674 4.467,16.731 C5.196,17.347 6.015,17.857 6.916,18.209 C7.413,16.969 8.605,16.093 10.000,16.093 C11.395,16.093 12.587,16.969 13.084,18.209 C13.985,17.857 14.804,17.347 15.533,16.731 C14.745,15.674 14.607,14.197 15.299,12.975 C15.983,11.767 17.286,11.153 18.565,11.301 L18.565,11.301 C18.629,10.870 18.667,10.429 18.667,9.979 C18.667,9.443 18.609,8.924 18.518,8.415 L18.518,8.415 ZM10.000,13.333 C8.159,13.333 6.667,11.841 6.667,10.000 C6.667,8.159 8.159,6.667 10.000,6.667 C11.841,6.667 13.333,8.159 13.333,10.000 C13.333,11.841 11.841,13.333 10.000,13.333 ZM10.000,8.000 C8.895,8.000 8.000,8.895 8.000,10.000 C8.000,11.104 8.895,12.000 10.000,12.000 C11.104,12.000 12.000,11.104 12.000,10.000 C12.000,8.895 11.104,8.000 10.000,8.000 Z" class="cls-1"/>
    </symbol>
    <symbol id="icon_connectors" viewBox="0 0 20 20">
        <path d="M20.000,16.428 C20.000,18.401 15.523,20.000 10.000,20.000 C4.477,20.000 -0.000,18.401 -0.000,16.428 C-0.000,15.880 -0.000,15.714 -0.000,15.714 L-0.000,4.286 C-0.000,4.286 -0.000,4.120 -0.000,3.571 C-0.000,1.599 4.477,-0.000 10.000,-0.000 C15.523,-0.000 20.000,1.599 20.000,3.571 C20.000,4.120 20.000,4.286 20.000,4.286 L20.000,15.714 C20.000,15.714 20.000,15.880 20.000,16.428 ZM1.428,11.428 C1.428,11.428 1.428,11.408 1.428,12.143 C1.428,13.326 5.266,14.286 10.000,14.286 C14.734,14.286 18.571,13.326 18.571,12.143 C18.571,11.408 18.571,11.428 18.571,11.428 L18.571,9.670 C16.829,10.718 13.661,11.428 10.000,11.428 C6.339,11.428 3.171,10.718 1.428,9.670 L1.428,11.428 ZM1.428,7.143 C1.428,7.143 1.428,7.122 1.428,7.857 C1.428,9.040 5.266,10.000 10.000,10.000 C14.734,10.000 18.571,9.040 18.571,7.857 C18.571,7.122 18.571,7.143 18.571,7.143 L18.571,5.384 C16.829,6.433 13.661,7.143 10.000,7.143 C6.339,7.143 3.171,6.433 1.428,5.384 L1.428,7.143 ZM10.000,1.429 C5.266,1.429 1.428,2.388 1.428,3.571 C1.428,4.755 5.266,5.714 10.000,5.714 C14.734,5.714 18.571,4.755 18.571,3.571 C18.571,2.388 14.734,1.429 10.000,1.429 ZM18.571,13.956 C16.829,15.004 13.661,15.714 10.000,15.714 C6.339,15.714 3.171,15.004 1.428,13.956 L1.428,15.714 C1.428,15.714 1.428,15.693 1.428,16.428 C1.428,17.612 5.266,18.571 10.000,18.571 C14.734,18.571 18.571,17.612 18.571,16.428 C18.571,15.693 18.571,15.714 18.571,15.714 L18.571,13.956 Z" class="cls-1"/>
    </symbol>
    <symbol id="icon_logout" viewBox="0 0 20 20">
        <path d="M18.982,11.078 L18.982,11.078 L14.887,15.391 L13.863,14.313 L17.228,10.769 L6.154,10.769 L6.154,9.231 L17.228,9.231 L13.863,5.687 L14.887,4.609 L18.982,8.922 L20.006,10.000 L18.982,11.078 ZM1.538,18.461 L16.923,18.461 L16.923,20.000 L-0.000,20.000 L-0.000,-0.000 L16.923,-0.000 L16.923,1.538 L1.538,1.538 L1.538,18.461 Z" class="cls-1"/>
    </symbol>
    <symbol id="icon_dashboard" viewBox="0 0 26 20">
        <path d="M25.822,15.714 L24.440,15.714 C24.520,15.247 24.567,14.769 24.598,14.286 L21.895,14.286 L21.895,12.857 L24.567,12.857 C24.407,10.053 23.372,7.499 21.694,5.525 L19.735,7.570 C19.432,7.198 19.104,6.857 18.749,6.540 L20.708,4.495 C18.817,2.743 16.370,1.662 13.684,1.495 L13.684,4.286 L12.316,4.286 L12.316,1.496 C9.624,1.663 7.175,2.748 5.285,4.507 L7.240,6.549 C6.892,6.860 6.571,7.195 6.273,7.559 L4.313,5.513 C2.633,7.491 1.560,10.045 1.403,12.857 L4.105,12.857 L4.105,14.286 L1.402,14.286 C1.432,14.769 1.480,15.247 1.560,15.714 L0.177,15.714 C0.071,15.015 -0.000,14.302 -0.000,13.571 C-0.000,6.076 5.820,-0.000 13.000,-0.000 C20.180,-0.000 26.000,6.076 26.000,13.571 C26.000,14.302 25.929,15.015 25.822,15.714 ZM11.021,16.103 L8.210,7.149 L14.763,13.997 C15.360,15.004 15.006,16.292 13.972,16.873 C12.939,17.454 11.617,17.109 11.021,16.103 ZM13.516,14.699 C13.317,14.363 12.876,14.248 12.532,14.442 C12.187,14.636 12.069,15.065 12.268,15.401 C12.467,15.736 12.907,15.851 13.252,15.658 C13.596,15.464 13.714,15.035 13.516,14.699 ZM20.526,20.000 L5.474,20.000 L5.474,18.571 L20.526,18.571 L20.526,20.000 Z" class="cls-1"/>
    </symbol>
    <symbol id="icon_user" viewBox="0 0 20 20">
        <path d="M19.973,17.142 C17.123,18.944 13.707,19.999 10.030,19.999 C6.353,19.999 2.938,18.944 0.088,17.142 L0.018,17.142 C1.316,13.021 5.281,9.999 10.030,9.999 C14.780,9.999 18.745,13.021 20.043,17.142 L19.973,17.142 ZM10.030,11.428 C6.118,11.428 2.821,13.820 1.581,17.142 L3.186,17.142 C5.273,18.051 7.585,18.571 10.030,18.571 C12.475,18.571 14.788,18.051 16.875,17.142 L18.479,17.142 C17.240,13.820 13.944,11.428 10.030,11.428 ZM10.030,8.571 C7.545,8.571 5.530,6.652 5.530,4.285 C5.530,1.918 7.545,-0.001 10.030,-0.001 C12.516,-0.001 14.531,1.918 14.531,4.285 C14.531,6.652 12.516,8.571 10.030,8.571 ZM10.030,1.428 C8.374,1.428 7.031,2.707 7.031,4.285 C7.031,5.863 8.374,7.142 10.030,7.142 C11.687,7.142 13.030,5.863 13.030,4.285 C13.030,2.707 11.687,1.428 10.030,1.428 Z" class="cls-1"/>
    </symbol>
    <symbol id="icon_upload" viewBox="0 0 20 16">
        <path d="M14.500,15.000 C14.329,15.000 14.167,14.965 14.000,14.950 L14.000,13.950 C14.166,13.968 14.329,14.000 14.500,14.000 C16.985,14.000 19.000,11.985 19.000,9.500 C19.000,7.015 16.985,5.000 14.500,5.000 C14.329,5.000 14.166,5.032 14.000,5.050 L14.000,4.000 L13.573,4.000 C12.801,2.237 11.049,1.000 9.000,1.000 C6.583,1.000 4.582,2.720 4.117,5.000 L4.000,5.000 L4.000,6.141 C2.278,6.588 1.000,8.138 1.000,10.000 C1.000,12.209 2.791,14.000 5.000,14.000 L5.000,15.000 C2.239,15.000 0.000,12.761 0.000,10.000 C0.000,7.926 1.263,6.148 3.061,5.391 C3.371,2.367 5.895,-0.000 9.000,-0.000 C11.615,-0.000 13.823,1.679 14.642,4.014 C17.612,4.091 20.000,6.511 20.000,9.500 C20.000,12.538 17.538,15.000 14.500,15.000 ZM9.500,8.324 L9.809,8.015 L12.985,11.191 L12.191,11.985 L10.000,9.794 L10.000,16.000 L9.000,16.000 L9.000,9.794 L6.809,11.985 L6.015,11.191 L9.191,8.015 L9.500,8.324 Z" class="cls-1"/>
    </symbol>
    <symbol id="icon_edit" viewBox="0 0 20 20">
        <path d="M0.000,20.000 L0.000,18.003 L20.000,18.003 L20.000,20.000 L0.000,20.000 ZM16.973,5.023 L13.979,2.028 L15.529,0.320 C15.958,-0.112 16.655,-0.109 17.086,0.326 L18.649,1.903 C19.081,2.339 19.084,3.042 18.655,3.475 L16.973,5.023 ZM7.990,14.008 L4.996,11.013 L12.981,3.026 L15.975,6.021 L7.990,14.008 ZM2.000,17.005 L3.998,12.011 L6.992,15.006 L2.000,17.005 Z" class="cls-1"/>
    </symbol>
    <symbol id="icon_success" viewBox="0 0 20 16">
        <path d="M19.993,2.131 L9.206,13.769 L9.286,13.850 L7.145,15.993 L0.007,8.848 L2.148,6.704 L7.065,11.626 L17.852,-0.012 L19.993,2.131 Z" class="cls-1"/>
    </symbol>
    <symbol id="icon_search" viewBox="0 0 20 20">
        <path d="M13.876,13.012 L17.810,16.945 C18.048,17.184 18.048,17.571 17.810,17.810 C17.571,18.048 17.184,18.048 16.945,17.810 L13.012,13.876 C10.370,16.074 6.456,15.965 3.979,13.488 C1.353,10.862 1.353,6.605 3.979,3.979 C6.605,1.353 10.862,1.353 13.487,3.979 C15.965,6.456 16.074,10.370 13.876,13.012 ZM4.843,4.843 C2.695,6.991 2.695,10.475 4.843,12.623 C6.991,14.771 10.475,14.771 12.623,12.623 C14.771,10.475 14.771,6.991 12.623,4.843 C10.475,2.695 6.991,2.695 4.843,4.843 Z" class="cls-1"/>
    </symbol>
    <symbol id="icon_filter" viewBox="0 0 14 14">
        <path d="M13.500,10.000 L9.500,10.000 C9.224,10.000 9.000,9.776 9.000,9.500 C9.000,9.224 9.224,9.000 9.500,9.000 L13.500,9.000 C13.776,9.000 14.000,9.224 14.000,9.500 C14.000,9.776 13.776,10.000 13.500,10.000 ZM13.500,7.000 L9.500,7.000 C9.224,7.000 9.000,6.776 9.000,6.500 C9.000,6.224 9.224,6.000 9.500,6.000 L13.500,6.000 C13.776,6.000 14.000,6.224 14.000,6.500 C14.000,6.776 13.776,7.000 13.500,7.000 ZM9.856,2.880 L6.912,5.823 C6.709,6.027 6.380,6.027 6.177,5.823 C5.973,5.620 5.973,5.291 6.177,5.087 L9.120,2.144 C9.216,2.048 9.342,2.005 9.468,2.000 L9.000,2.000 C9.000,1.448 8.552,1.000 8.000,1.000 L2.000,1.000 C1.448,1.000 1.000,1.448 1.000,2.000 L0.532,2.000 C0.658,2.005 0.784,2.048 0.880,2.144 L3.823,5.087 C4.026,5.291 4.026,5.620 3.823,5.823 C3.620,6.027 3.291,6.027 3.087,5.823 L0.144,2.880 C-0.059,2.677 -0.059,2.347 0.144,2.144 C0.240,2.048 0.366,2.005 0.492,2.000 L-0.000,2.000 C-0.000,0.895 0.895,-0.000 2.000,-0.000 L8.000,-0.000 C9.105,-0.000 10.000,0.895 10.000,2.000 L9.508,2.000 C9.634,2.005 9.760,2.048 9.856,2.144 C10.059,2.347 10.059,2.677 9.856,2.880 ZM3.500,6.000 C3.776,6.000 4.000,6.224 4.000,6.500 L4.000,11.500 C4.000,11.776 3.776,12.000 3.500,12.000 C3.224,12.000 3.000,11.776 3.000,11.500 L3.000,6.500 C3.000,6.224 3.224,6.000 3.500,6.000 ZM6.500,6.000 C6.776,6.000 7.000,6.224 7.000,6.500 L7.000,13.500 C7.000,13.776 6.776,14.000 6.500,14.000 C6.224,14.000 6.000,13.776 6.000,13.500 L6.000,6.500 C6.000,6.224 6.224,6.000 6.500,6.000 ZM9.500,12.000 L13.500,12.000 C13.776,12.000 14.000,12.224 14.000,12.500 C14.000,12.776 13.776,13.000 13.500,13.000 L9.500,13.000 C9.224,13.000 9.000,12.776 9.000,12.500 C9.000,12.224 9.224,12.000 9.500,12.000 Z" class="cls-1"/>
    </symbol>
    <symbol id="icon_number" viewBox="0 0 12 12">
        <path d="M12.000,8.000 L12.000,9.000 L8.500,9.000 L8.000,12.000 L7.000,12.000 L7.500,9.000 L3.500,9.000 L3.000,12.000 L2.000,12.000 L2.500,9.000 L-0.000,9.000 L-0.000,8.000 L2.667,8.000 L3.333,4.000 L-0.000,4.000 L-0.000,3.000 L3.500,3.000 L4.000,-0.000 L5.000,-0.000 L4.500,3.000 L8.500,3.000 L9.000,-0.000 L10.000,-0.000 L9.500,3.000 L12.000,3.000 L12.000,4.000 L9.333,4.000 L8.667,8.000 L12.000,8.000 ZM4.333,4.000 L3.667,8.000 L7.666,8.000 L8.333,4.000 L4.333,4.000 Z" class="cls-1"/>
    </symbol>
    <symbol id="icon_bigt" viewBox="0 0 12 12">
        <path d="M12.000,1.000 L12.000,3.000 L10.000,1.000 L7.000,1.000 L7.000,11.000 L9.000,11.000 L9.000,12.000 L3.000,12.000 L3.000,11.000 L5.000,11.000 L5.000,1.000 L2.000,1.000 L-0.000,3.000 L-0.000,1.000 L-0.000,1.000 L-0.000,-0.000 L5.000,-0.000 L5.000,-0.000 L7.000,-0.000 L7.000,-0.000 L12.000,-0.000 L12.000,1.000 L12.000,1.000 Z" class="cls-1"/>
    </symbol>
    <symbol id="icon_smalltip" viewBox="0 0 14 14">
        <path d="M7.000,14.000 C3.134,14.000 -0.000,10.865 -0.000,7.000 C-0.000,3.133 3.134,-0.001 7.000,-0.001 C10.866,-0.001 14.000,3.133 14.000,7.000 C14.000,10.865 10.866,14.000 7.000,14.000 ZM7.000,0.874 C3.617,0.874 0.875,3.617 0.875,7.000 C0.875,10.382 3.617,13.124 7.000,13.124 C10.382,13.124 13.125,10.382 13.125,7.000 C13.125,3.617 10.382,0.874 7.000,0.874 ZM7.000,10.500 L7.000,6.124 L6.125,6.124 L6.125,5.250 L7.000,5.250 L7.875,5.250 L7.875,9.625 L8.750,9.625 L8.750,10.500 L7.875,10.500 L7.000,10.500 ZM7.000,4.374 C6.517,4.374 6.125,3.983 6.125,3.500 C6.125,3.016 6.517,2.625 7.000,2.625 C7.483,2.625 7.875,3.016 7.875,3.500 C7.875,3.983 7.483,4.374 7.000,4.374 Z" class="cls-1"/>
    </symbol>
    <symbol id="icon_rotate" viewBox="0 0 14 14">
        <path d="M14.012,7.990 L11.500,11.002 L8.988,7.990 L11.000,7.990 L11.000,1.000 L4.000,1.000 L4.000,-0.000 L11.000,-0.000 L12.000,-0.000 L12.000,1.000 L12.000,7.990 L14.012,7.990 ZM3.000,6.010 L3.000,13.000 L10.000,13.000 L10.000,14.000 L3.000,14.000 L2.000,14.000 L2.000,13.000 L2.000,6.010 L-0.012,6.010 L2.500,2.998 L5.011,6.010 L3.000,6.010 Z" class="cls-1"/>
    </symbol>
    <symbol id="icon_yaxis" viewBox="0 0 12 12">
        <path d="M2.000,10.000 L2.000,12.000 L1.000,12.000 L1.000,10.000 L-0.000,10.000 L-0.000,9.000 L1.000,9.000 L1.000,-0.000 L2.000,-0.000 L2.000,9.000 L12.000,9.000 L12.000,10.000 L2.000,10.000 ZM3.009,7.258 L11.258,0.009 L11.990,0.742 L3.742,7.990 L3.009,7.258 Z" class="cls-1"/>
    </symbol>
    <symbol id="icon_contrast" viewBox="0 0 12 12">
        <path d="M10.000,8.000 C8.895,8.000 8.000,7.105 8.000,6.000 C8.000,4.895 8.895,4.000 10.000,4.000 C11.104,4.000 12.000,4.895 12.000,6.000 C12.000,7.105 11.104,8.000 10.000,8.000 ZM11.000,6.000 C11.000,5.448 10.552,5.000 10.000,5.000 C9.448,5.000 9.000,5.448 9.000,6.000 L9.000,6.000 C9.000,6.552 9.448,7.000 10.000,7.000 C10.552,7.000 11.000,6.552 11.000,6.000 L11.000,6.000 ZM6.000,-0.000 L7.000,-0.000 L7.000,12.000 L6.000,12.000 L6.000,-0.000 ZM3.000,9.000 L2.000,9.000 C0.895,9.000 -0.000,8.105 -0.000,7.000 L-0.000,5.000 C-0.000,3.895 0.895,3.000 2.000,3.000 L3.000,3.000 C4.104,3.000 5.000,3.895 5.000,5.000 L5.000,7.000 C5.000,8.105 4.104,9.000 3.000,9.000 ZM4.000,5.000 C4.000,4.448 3.552,4.000 3.000,4.000 L2.000,4.000 C1.447,4.000 1.000,4.448 1.000,5.000 L1.000,7.000 C1.000,7.552 1.447,8.000 2.000,8.000 L3.000,8.000 C3.552,8.000 4.000,7.552 4.000,7.000 L4.000,5.000 Z" class="cls-1"/>
    </symbol>
    <symbol id="icon_goback" viewBox="0 0 14 14">
        <path d="M13.516,7.000 L0.796,7.000 C0.734,7.007 0.673,7.007 0.611,7.000 L0.484,7.000 C0.217,7.000 0.000,6.783 0.000,6.516 C0.000,6.510 0.003,6.505 0.003,6.499 C-0.059,6.272 -0.007,6.023 0.184,5.846 L5.730,0.202 C6.017,-0.066 6.482,-0.066 6.770,0.202 C7.057,0.470 7.057,0.905 6.770,1.172 L1.995,6.031 L13.516,6.031 C13.783,6.031 14.000,6.248 14.000,6.516 C14.000,6.783 13.783,7.000 13.516,7.000 ZM3.114,9.214 L6.790,12.735 C7.052,13.021 7.052,13.485 6.790,13.771 C6.529,14.056 6.105,14.056 5.844,13.771 L2.167,10.249 C1.906,9.963 1.906,9.500 2.167,9.214 C2.428,8.928 2.852,8.928 3.114,9.214 Z" class="cls-1"/>
    </symbol>
    <symbol id="icon_date" viewBox="0 0 12 12">
        <path d="M12.000,5.000 L12.000,12.000 L-0.000,12.000 L-0.000,1.000 L2.000,1.000 L2.000,2.000 L1.000,2.000 L1.000,4.000 L7.000,4.000 L10.000,4.000 L11.000,4.000 L11.000,2.000 L10.000,2.000 L10.000,1.000 L12.000,1.000 L12.000,4.000 L12.000,4.000 L12.000,5.000 L12.000,5.000 ZM11.000,5.000 L1.000,5.000 L1.000,11.000 L11.000,11.000 L11.000,5.000 ZM4.000,7.000 L3.000,7.000 L3.000,6.000 L4.000,6.000 L4.000,7.000 ZM5.000,9.000 L4.000,9.000 L4.000,8.000 L5.000,8.000 L5.000,9.000 ZM5.000,6.000 L6.000,6.000 L6.000,7.000 L5.000,7.000 L5.000,6.000 ZM7.000,9.000 L6.000,9.000 L6.000,8.000 L7.000,8.000 L7.000,9.000 ZM7.000,6.000 L8.000,6.000 L8.000,7.000 L7.000,7.000 L7.000,6.000 ZM9.000,9.000 L8.000,9.000 L8.000,8.000 L9.000,8.000 L9.000,9.000 ZM8.000,-0.000 L9.000,-0.000 L9.000,3.000 L8.000,3.000 L8.000,-0.000 ZM5.000,1.000 L7.000,1.000 L7.000,2.000 L5.000,2.000 L5.000,1.000 ZM3.000,-0.000 L4.000,-0.000 L4.000,3.000 L3.000,3.000 L3.000,-0.000 Z" class="cls-1"/>
    </symbol>
    <symbol id="test" viewBox="0 0 20 20">
    </symbol>
</svg>